<svg width="20" height="17" viewBox="0 0 20 17" fill="none" xmlns="http://www.w3.org/2000/svg">
<path d="M10.9091 9C10.9091 9.50208 10.5021 9.90909 10 9.90909C9.49792 9.90909 9.09091 9.50208 9.09091 9V6.27273C9.09091 5.77065 9.49792 5.36364 10 5.36364C10.5021 5.36364 10.9091 5.77065 10.9091 6.27273V9ZM10.9091 12.6364C10.9091 13.1384 10.5021 13.5455 10 13.5455C9.49792 13.5455 9.09091 13.1384 9.09091 12.6364C9.09091 12.1343 9.49792 11.7273 10 11.7273C10.5021 11.7273 10.9091 12.1343 10.9091 12.6364ZM1.11195 14.3521C0.618093 15.2051 1.23363 16.2727 2.2193 16.2727H17.7807C18.7664 16.2727 19.3819 15.2051 18.888 14.3521L11.1074 0.912701C10.6145 0.0614384 9.38548 0.061437 8.89265 0.912699L1.11195 14.3521Z" fill="#F7C752"/>
</svg>
